# xmcd
#
# Track frame offsets: 
#        150
#        17825
#        37037
#        49384
#        63661
#        83471
#        105347
#        118258
#        138157
#        157578
#        175184
#        199729
#
# Disc length: 3068 seconds
#
# Revision: 0
# Processed by: cddbd v1.5.1PL0 Copyright (c) Steve Scherf et al.
# Submitted via: ExactAudioCopy v0.95b3
#
DISCID=970bfa0c
DTITLE=Raiford Starke - Speak Me
DYEAR=2004
DGENRE=Folk
TTITLE0=Speak Me
TTITLE1=Girl from Immokalee
TTITLE2=Gentle Breeze
TTITLE3=No Troub Doc
TTITLE4=Johnny Lee
TTITLE5=Blue Angel
TTITLE6=Stockbroker Took My Girl
TTITLE7=Roughed Up
TTITLE8=Tall Dark Stranger
TTITLE9=Midnight Drive
TTITLE10=Jaded Love
TTITLE11=West Memphis
EXTD=
EXTT0=
EXTT1=
EXTT2=
EXTT3=
EXTT4=
EXTT5=
EXTT6=
EXTT7=
EXTT8=
EXTT9=
EXTT10=
EXTT11=
PLAYORDER=
